<svg xmlns="http://www.w3.org/2000/svg" viewBox="0 0 246.76 232.58"><title>pedidos_ya</title><g id="Capa_1" data-name="Capa 1"><path d="M567,97.18c24.33,0,48.66-.07,73,0,42.25.15,76.22,27.53,85.37,68.71,10.46,47.07-24.43,96.31-72.16,101.73a157.08,157.08,0,0,1-16.93,1c-23.17.11-46.33.15-69.49-.05-3.94,0-5.45,1.24-6.39,5-2.93,11.6-6.26,23.09-9.44,34.63-4.15,15.06-12.6,21.56-28.1,21.56-11.33,0-22.67,0-34,0-5.85,0-7.48-2.07-6-7.8,9.42-37.21,19-74.38,28.29-111.62,1.25-5,4-6.09,8.61-6.08q60.49.13,121,0c14,0,23.27-11.3,20.89-24.91-1.68-9.66-10.17-16.63-20.73-16.66-35.83-.11-71.66,0-107.49-.23A121.54,121.54,0,0,1,513,160.64c-22-3.88-32.54-16.77-32.56-39,0-5.83,0-11.67,0-17.5,0-6,.95-6.93,7-6.93q39.75,0,79.5,0Z" transform="translate(-480.43 -97.14)"/></g></svg>