<svg xmlns="http://www.w3.org/2000/svg" viewBox="0 0 2252.88 1644.09"><defs><style>.cls-1{fill:#c94b51;}.cls-2{fill:#7d2e32;}.cls-3,.cls-5{fill:#fff;}.cls-4{fill:#fc5c65;}.cls-5{font-size:120px;font-family:RobotoSlab-Bold, Roboto Slab;font-weight:700;}.cls-6{fill:#cec8c8;}.cls-7{fill:#b3a9a9;}.cls-8{fill:#dedede;}.cls-9{fill:#e1dddd;}.cls-10{fill:#85baba;}.cls-11{fill:#b1afaf;}.cls-12{fill:#b5b2b2;}.cls-13{fill:#759999;}.cls-14{fill:#788;}.cls-15{fill:#bfb4b4;}.cls-16{fill:#586a6a;}.cls-17{fill:#c7b7b7;}.cls-18{fill:#a49f9f;}.cls-19{fill:#4e6d6d;}.cls-20{fill:#977777;}.cls-21{fill:#d4c9c9;}.cls-22{fill:#d9d9d9;}.cls-23{fill:#e5e2e2;}.cls-24{fill:#897b7b;}.cls-25{fill:#667575;}.cls-26{fill:#807070;}.cls-27{fill:#d2d1d1;}.cls-28{fill:#7d5b5b;}.cls-29{fill:#f9fafa;}.cls-30{fill:#fafbfb;}.cls-31{fill:#394848;}.cls-32{fill:#bba4a4;}</style></defs><title>logo restaurant</title><g id="liston_2" data-name="liston 2"><path class="cls-1" d="M463.16,1178.11c-151.53-62.2-304.22,62.2-455.74,0C63.87,1136,108.59,1079.58,151,1024A1177.64,1177.64,0,0,1,7.42,837.34c151.52,62.19,304.21-62.2,455.74,0Z" transform="translate(-7.42 -311.81)"/><path class="cls-1" d="M1804.56,1178.11c151.52,62.2,304.21-62.2,455.74,0a1177.64,1177.64,0,0,0-143.61-186.7c42.25-55.3,87-112.61,143.61-154.07-151.53-62.2-304.22,62.19-455.74,0Z" transform="translate(-7.42 -311.81)"/></g><g id="liston_3" data-name="liston 3"><path class="cls-2" d="M235.29,1010.83s202.38,38.88,227.87,170.39l4.27-269.64Z" transform="translate(-7.42 -311.81)"/><path class="cls-2" d="M2032.43,1007.73s-176.89-28.62-227.87,170.38V837.34Z" transform="translate(-7.42 -311.81)"/></g><g id="circulos"><circle cx="1126.44" cy="822.05" r="822.05"/><circle class="cls-3" cx="1126.44" cy="822.05" r="538.58"/></g><g id="liston_1" data-name="liston 1"><path class="cls-4" d="M2032.43,1008.36c-141.25-31.27-286.54-42-432.37-38.77-456.33,10-910.74,139.27-1364.77,38.77V667.58c454,100.5,908.44-28.79,1364.77-38.76,145.83-3.19,291.12,7.49,432.37,38.76Z" transform="translate(-7.42 -311.81)"/></g><g id="titulo"><path class="cls-3" d="M333,801.52c0-4.21-2.67-6.62-7.52-7.6-8.49-1.71-20.15,2.11-26.09,8.55a35.43,35.43,0,0,0-9.7,15,24.82,24.82,0,0,0-1.36,7.55,16.51,16.51,0,0,0,.79,5.54,13,13,0,0,0,2,3.66c1.7,2.14,3.95,3.47,5.94,3.27,2.21-.22,4.62-.61,6.5-.26a13.53,13.53,0,0,1,4.51,1.56,11.15,11.15,0,0,1,2.75,2.27q2.18,2.5,2.18,4.46c0,2.56-.88,3.7-2.56,3.52a25,25,0,0,0-8.19.65,43.57,43.57,0,0,0-8.65,3,33.45,33.45,0,0,0-7.75,5c-5.16,4.48-7.74,9.47-7.74,15a10.09,10.09,0,0,0,1.88,6.4,12.39,12.39,0,0,0,7.52,5.06,20.77,20.77,0,0,0,8.53,0,29.47,29.47,0,0,0,7.56-2.65,41.93,41.93,0,0,0,9.93-7.56q2.4-2.43,4.21-2.1a3.77,3.77,0,0,1,2.74,2.63,12.33,12.33,0,0,1,.94,4.71c0,3.31-.63,5.65-1.88,7a25.17,25.17,0,0,1-4.7,3.9,28.61,28.61,0,0,1-6.73,3.17,40.1,40.1,0,0,1-20.15.92c-10.2-1.94-20-7.49-24.82-17.07a22.07,22.07,0,0,1-2.4-9.63,23.38,23.38,0,0,1,1.39-8.34,27.51,27.51,0,0,1,3.57-6.63,27.08,27.08,0,0,1,4.89-5.12,39,39,0,0,1,5.34-3.64c3.46-2,6.31-2.93,8.57-2.83-5.67-3.4-9.47-8.59-11.43-15.52a30.46,30.46,0,0,1-.9-7.86,29.67,29.67,0,0,1,1.73-9.6,35.36,35.36,0,0,1,4.88-9.43A40.66,40.66,0,0,1,295.92,785a42,42,0,0,1,23.91-2.47c8.77,1.55,15.32,4.82,19.63,9.88a21.4,21.4,0,0,1,5.19,14.3q0,9.33-7.82,17.6-4.74,4.93-8.54,6.31a15,15,0,0,1-5.94,1.19,9.8,9.8,0,0,1-4-1.23,13.51,13.51,0,0,1-3.2-2.49c-2.06-2.23-3.08-4.1-3.08-5.6a4.18,4.18,0,0,1,2-3.93l6.77-3.6C328.93,810.46,333,805.93,333,801.52Z" transform="translate(-7.42 -311.81)"/><path class="cls-3" d="M342.16,900.26a18.19,18.19,0,0,1-3-5.49,21.26,21.26,0,0,1-1.17-7.26A40.19,40.19,0,0,1,339.8,877q1.83-6.46,4.7-14.66c2.52-7.08,3.79-10.63,6.31-17.72,6.62-18.87,13.4-38.13,15.57-58.11.45-4.15,2.5-5.95,6.16-5.44a10.83,10.83,0,0,1,5.72,2.46q4.37,3.9,4.21,7.94a54.4,54.4,0,0,1-1.43,9.69q-1.28,5.66-3.31,12.26t-4.66,13.9q-5.19,14.52-10.38,29c-3.59,10.34-8.59,21.53-8.95,32.26-.08,2.62,1.11,4.23,3.31,4.57a11.43,11.43,0,0,0,5.76-.5,9.57,9.57,0,0,1,3.34-.86,1.65,1.65,0,0,1,1.58,1.81c0,4.46-2.28,7.87-6.84,10.2a13.65,13.65,0,0,1-8.39,1.81,18.77,18.77,0,0,1-6.12-1.87A14.41,14.41,0,0,1,342.16,900.26Z" transform="translate(-7.42 -311.81)"/><path class="cls-3" d="M503.91,830.11c-.06-10.59-10.43-15.89-19.78-16.31A50.44,50.44,0,0,0,459,819.3a33.4,33.4,0,0,0-5.75,3.51,5.57,5.57,0,0,1-3.95,1.48,8.11,8.11,0,0,1-3.61-1.28,14.26,14.26,0,0,1-3.08-2.67q-5-6,1.05-10.5c8.48-6,19.84-7.23,29.93-7.37,2.8-.08,6.36,0,10.67.36a47.59,47.59,0,0,1,13.65,3.28A40.51,40.51,0,0,1,510,813.18a27.85,27.85,0,0,1,9.78,21.08c.19,9.31-6.69,20.67-13.54,26.22-7.17,5.8-18.22,11.67-27.75,13.36a41.4,41.4,0,0,1,8.2,11l6,11.18q7.89,15.19,14.13,16.85a11.38,11.38,0,0,0,4.51.12,13.93,13.93,0,0,1,3-.31c.48.05.8.48,1,1.29a4.6,4.6,0,0,1-.64,3,9.26,9.26,0,0,1-2.93,3.22,13.77,13.77,0,0,1-10.38,2.71,23.31,23.31,0,0,1-9.14-2.93,27.39,27.39,0,0,1-6.24-5.29,42,42,0,0,1-4.89-6.9c-1.43-2.52-2.74-5.07-3.94-7.67l-3.39-7.64q-1.57-3.74-2.93-6.43t-2.33-4.93a28.3,28.3,0,0,0-2.18-4.06,12.67,12.67,0,0,0-6.54-5.52c-6.47,15-14.64,37.56-32.11,43.22a7.31,7.31,0,0,1-2.75.23,6.74,6.74,0,0,1-2.52-.76,7,7,0,0,1-1.88-1.45,4.77,4.77,0,0,1-1.58-3.33,2.65,2.65,0,0,1,1.13-2.44c13.56-10,19.41-30.39,25-45.23,1.81-4.91,2.71-7.37,4.51-12.28,3.21-9.09,6.76-18.51,13.09-25.9a5.94,5.94,0,0,1,3.91-1.1,9.4,9.4,0,0,1,3.53.93,10.91,10.91,0,0,1,2.63,1.83c1.71,1.64,2.56,3.23,2.56,4.79a8.13,8.13,0,0,1-1,4.09,38.88,38.88,0,0,0-2.3,5q-3.68,9.33-5.71,15c-1.54,4.2-2.3,6.3-3.84,10.5,9.46-.07,21.18-5,28.35-10.36C497.44,849.24,504,838.62,503.91,830.11Z" transform="translate(-7.42 -311.81)"/><path class="cls-3" d="M549.93,909.34c1.3,0,2,.93,2,2.63,0,2.25-1,4.55-3.08,6.87q-4.51,5.1-12.11,4.76c-5.81-.26-9.8-2.82-12-7.64a14.15,14.15,0,0,1-1.2-6.08,28,28,0,0,1,1.24-7.79q1.23-4.26,3.08-9t4-9.46c1.6-3.72,2.39-5.58,4-9.29q4.35-10.41,4.36-13.8t-.72-4.5a6.76,6.76,0,0,0-1.54-1.76l-1.5-1.12a2.19,2.19,0,0,1-.75-1.88,3.72,3.72,0,0,1,1-2.47,8.87,8.87,0,0,1,2.67-2,16.92,16.92,0,0,1,7.9-1.4c7.37.29,11.05,2.34,11.05,6.2q0,6.76-3.53,15.33t-6,13.8c-1.8,4.08-2.71,6.12-4.51,10.19q-5,11.24-5,16.26,0,3.32,3.31,3.45a11,11,0,0,0,4.88-.63A6.11,6.11,0,0,1,549.93,909.34Zm15.41-80.87a13.12,13.12,0,0,1-3.76,2.74,12.22,12.22,0,0,1-4.43,1.2,8.06,8.06,0,0,1-4.4-.87,10.86,10.86,0,0,1-3.57-2.91,12.13,12.13,0,0,1-3.24-7.73,10.53,10.53,0,0,1,1.24-5.7,9.74,9.74,0,0,1,3.13-3,12.29,12.29,0,0,1,6.8-2.08,21.35,21.35,0,0,1,5,.61,10.39,10.39,0,0,1,3.27,1.61q3.69,2.6,3.69,6.16a14.85,14.85,0,0,1-1,5.91A13.38,13.38,0,0,1,565.34,828.47Z" transform="translate(-7.42 -311.81)"/><path class="cls-3" d="M623,861.28c-1.56,0-3.76,1.48-6.62,4.44s-5.34,5.67-7.44,8.1l-6.39,7.6c-4.94,6.22-7.4,9.33-12.34,15.52q-4.35,8.19-6.84,13.62c-1.62,3.46-2.44,5.18-4.06,8.63a21,21,0,0,1-2.74,4.49,3.91,3.91,0,0,1-3.16,1.23,10.57,10.57,0,0,1-3.84-.82,11.85,11.85,0,0,1-3.19-1.93c-1.91-1.67-2.86-3.45-2.86-5.36a12.88,12.88,0,0,1,1.65-4.38c1.15-2.4,1.72-3.6,2.86-6,.9-1.77,2-4,3.16-6.82,1.68-4.08,2.53-6.12,4.21-10.19,3.78-9.15,8.28-19.16,8.87-28.45a5.89,5.89,0,0,0-2.25-5.16l-1.51-1.09a2.13,2.13,0,0,1-.75-1.85,3.78,3.78,0,0,1,1-2.5,8.75,8.75,0,0,1,2.67-2.05,14.76,14.76,0,0,1,6.8-1.59,15,15,0,0,1,5.3.84,9.71,9.71,0,0,1,3.16,2.08q2.78,2.68,2.78,5.53a24.05,24.05,0,0,1-.71,5.74,54.94,54.94,0,0,1-1.81,5.84c-.72,2-1.49,3.9-2.29,5.8s-1.53,3.53-2.18,4.93l-1.5,3.2q-.62,1.2-.3.75,8.34-11.43,11-14.73l5.27-6.25q5.79-6.72,9.1-8.88,6.69-4.47,10.52-4.48a19,19,0,0,1,6.47,1,13.85,13.85,0,0,1,4.59,2.77,12.69,12.69,0,0,1,4.13,9.75,32.22,32.22,0,0,1-2.7,12.42q-2.72,6.48-4.7,10.51c-1.33,2.68-2.6,5.41-3.8,8.16q-5.64,12.57-5.64,18.27,0,2.56,4.06,2.56a12.14,12.14,0,0,0,5.75-1.36,10.72,10.72,0,0,1,3.35-1.36,1.39,1.39,0,0,1,1.58,1.57q0,6.69-6.85,11.23c-3.05,2.06-5.86,3.08-8.42,3.08a20.66,20.66,0,0,1-6.35-.85,12.24,12.24,0,0,1-4.48-2.66q-4.43-4-4.43-11.16c0-5.82,1.77-13.2,5.49-21.77,2.56-5.91,4.53-10,5.64-12.23l2.55-5.33c1.56-3.2,2.33-5.73,2.33-7.59S625.78,861.29,623,861.28Z" transform="translate(-7.42 -311.81)"/><path class="cls-3" d="M654.9,898.85A50.16,50.16,0,0,1,657,885.78a62.21,62.21,0,0,1,5.11-12.36,58.47,58.47,0,0,1,7.6-10.79,54.94,54.94,0,0,1,9.59-8.59,40.89,40.89,0,0,1,22.78-8q12.33-.36,16.77,9.31a17.94,17.94,0,0,1,1.46,8,26.12,26.12,0,0,1-1.46,8.25,30,30,0,0,1-3.39,6.77q-4.57,6.76-9.25,6.91c-3.45.11-6-.78-7.66-2.63a6,6,0,0,1-1.36-5.76,3.18,3.18,0,0,1,1.36-1.8,24,24,0,0,0,2.85-2.6,18.17,18.17,0,0,0,5.12-12.11c.1-3.11-1.81-4.6-5.72-4.49q-6.32.18-13.23,7.41c-6.75,6.73-12.07,17.64-14.22,26.68-2.19,9.24-2,16.18,1.36,20.43a9.32,9.32,0,0,0,8,3.6q8.49-.18,16.39-6.41a22.67,22.67,0,0,0,3.91-3.95c1-1.33,1.93-2,2.78-2a2.48,2.48,0,0,1,2.15,1.18,5.38,5.38,0,0,1,.86,3.17q0,4.44-4,8.84a34.85,34.85,0,0,1-24.59,10.39q-12.25.26-18.95-6.68T654.9,898.85Z" transform="translate(-7.42 -311.81)"/><path class="cls-3" d="M733.86,917.65a19.74,19.74,0,0,1-5-7.43A30.6,30.6,0,0,1,727,899.35a50.78,50.78,0,0,1,1.55-12.85,64.17,64.17,0,0,1,4.58-12.66,66.42,66.42,0,0,1,7.15-11.57,57.83,57.83,0,0,1,9.21-9.58q11-8.93,22.78-9.55c10.33-.54,17.36,3.6,21,12.44,2.62,6.38,2.75,14.35.45,23.81a66.55,66.55,0,0,1-11.58,24.28,50.19,50.19,0,0,1-19.7,16.3,31,31,0,0,1-11.24,2.8,30.48,30.48,0,0,1-9.85-1A18.53,18.53,0,0,1,733.86,917.65Zm14.36-37.08a75.3,75.3,0,0,0-3.57,11.59,48.1,48.1,0,0,0-1.24,11.14,18.25,18.25,0,0,0,1.61,8.13,5,5,0,0,0,5,2.74,12.16,12.16,0,0,0,6.81-2.68,35.44,35.44,0,0,0,6.5-6.6,62.87,62.87,0,0,0,5.94-9.33,89.56,89.56,0,0,0,4.89-10.93c3.06-8.24,4.49-15.54,4.44-21.75-.05-5.47-1.13-9-3.39-10.34a6.48,6.48,0,0,0-3.79-.7,10.7,10.7,0,0,0-5.61,2.51,36.27,36.27,0,0,0-6.31,6.29,66.45,66.45,0,0,0-6.09,9.09A86.48,86.48,0,0,0,748.22,880.57ZM773,835.36a16.39,16.39,0,0,1-5,1.47q-2.12.18-2.79-.69a2.31,2.31,0,0,1,.15-3.54c1.39-1.39,2.08-2.09,3.46-3.49,7.15-6.78,13.2-17.66,15.42-27.23.5-2,2.45-3,5.64-2.8a8.66,8.66,0,0,1,6.46,3.68q5.49,7.34-4.88,18.78A56.62,56.62,0,0,1,773,835.36Z" transform="translate(-7.42 -311.81)"/><path class="cls-3" d="M860.26,851.58q-2.32.18-6.62,5c-2.85,3.2-5.34,6.11-7.44,8.72l-6.39,8.13L827.48,890q-4.37,8.58-6.85,14.23l-4.06,9a24,24,0,0,1-2.74,4.73,4.34,4.34,0,0,1-3.16,1.52,10.3,10.3,0,0,1-3.84-.47,10.56,10.56,0,0,1-3.19-1.64,6.4,6.4,0,0,1-2.86-5.09,14,14,0,0,1,1.66-4.54l2.85-6.27c.9-1.86,2-4.23,3.16-7.12,1.69-4.22,2.53-6.34,4.21-10.57,3.75-9.42,8.26-19.71,8.87-29.23a5.4,5.4,0,0,0-2.25-5l-1.51-1a2,2,0,0,1-.75-1.79,4.12,4.12,0,0,1,1-2.59,10,10,0,0,1,2.67-2.28,15.47,15.47,0,0,1,6.8-2.19,14.5,14.5,0,0,1,5.3.38A8.25,8.25,0,0,1,836,842a7,7,0,0,1,2.78,5.29,24.34,24.34,0,0,1-.71,5.8,62.21,62.21,0,0,1-1.8,6c-.73,2-1.5,4-2.3,6s-1.53,3.67-2.18,5.12l-1.5,3.34c-.4.83-.5,1.09-.3.77q8.34-12.15,11-15.67l5.27-6.7q5.79-7.18,9.1-9.63,6.69-5,10.52-5.32a18.32,18.32,0,0,1,6.47.46,12.53,12.53,0,0,1,4.59,2.41,11.75,11.75,0,0,1,4.13,9.44,33.81,33.81,0,0,1-2.7,12.63q-2.71,6.69-4.7,10.87t-3.8,8.46q-5.64,13-5.64,18.72,0,2.55,4.06,2.24a12.89,12.89,0,0,0,5.75-1.82,11.51,11.51,0,0,1,3.35-1.62c1-.08,1.58.4,1.58,1.45q0,6.69-6.84,11.76-4.59,3.45-8.43,3.75a20.18,20.18,0,0,1-6.35-.34,11,11,0,0,1-4.47-2.29q-4.44-3.64-4.44-10.8c0-5.81,1.78-13.35,5.49-22.22,2.56-6.13,4.54-10.39,5.64-12.68l2.55-5.54q2.34-5,2.34-7.78T860.26,851.58Z" transform="translate(-7.42 -311.81)"/><path class="cls-3" d="M1014.86,885.75c1-.11,1.58.39,1.58,1.49q0,6.46-6.69,11.82-4.44,3.63-8.39,4a17.06,17.06,0,0,1-6.27-.26,10.14,10.14,0,0,1-4.22-2.43q-4.2-4.08-4.21-12a33.38,33.38,0,0,1,.61-5.1q-6.1,10-10.46,14.28-8.79,8.83-17.22,9.65-13.3,1.29-17.44-10.37a33.51,33.51,0,0,1-1.51-11,49.54,49.54,0,0,1,2-13.73,69.06,69.06,0,0,1,5.53-13.53,80,80,0,0,1,8.12-12.24,78.09,78.09,0,0,1,9.74-10.16q11-9.26,19.85-10.16t14.21,5.78c5.21-18,9.49-38.83,19.7-54.89,1.86-2.4,3.81-3.71,5.87-3.93,3.41-.35,6,.35,7.75,2.12a2.72,2.72,0,0,1,.82,1.87,12.11,12.11,0,0,1-1.2,3.74q-1.2,2.76-3.54,8.86c-3.21,8.92-6.48,17.83-9.39,26.86-3.17,9.92-6.35,19.85-9.33,29.84-1.65,5.73-2.48,8.6-4.13,14.34q-5.34,19.13-5.34,24.16c0,3.35,1.22,4.91,3.68,4.66a14.64,14.64,0,0,0,5.42-1.46l2.85-1.65A3.59,3.59,0,0,1,1014.86,885.75Zm-51.66,9.86c5.17-.5,11.07-6.16,17.75-16.86a113.11,113.11,0,0,0,14.59-35.53q-.3-5.09-4.29-7.08a7.7,7.7,0,0,0-4.1-.42,15.18,15.18,0,0,0-6.39,2.63,37.24,37.24,0,0,0-7.07,6.08A55.76,55.76,0,0,0,967.3,853a70.28,70.28,0,0,0-5.15,10.17,58.79,58.79,0,0,0-4.74,22.3Q957.41,896.17,963.2,895.61Z" transform="translate(-7.42 -311.81)"/><path class="cls-3" d="M1026.29,873.43a51.13,51.13,0,0,1,2.18-12.75,67.19,67.19,0,0,1,5-12.11,78.41,78.41,0,0,1,7.41-11.39,68.39,68.39,0,0,1,9.21-9.74q10.75-9.2,21.73-10.38,12.86-1.39,17.14,8.73a20,20,0,0,1,1.43,8.38,25.07,25.07,0,0,1-1.88,9.31,30.71,30.71,0,0,1-5,8.14,42.77,42.77,0,0,1-7.59,7,59.78,59.78,0,0,1-9.59,5.63,76,76,0,0,1-22.86,6.36,14.22,14.22,0,0,0-.37,3.2,19.11,19.11,0,0,0,.45,4.65,12.3,12.3,0,0,0,1.8,4.43,7.66,7.66,0,0,0,7.82,3.68,35.23,35.23,0,0,0,17-6.95,28,28,0,0,0,4.77-4.09c1.23-1.36,2.29-2.09,3.2-2.19a2.5,2.5,0,0,1,2.36,1.36,6.16,6.16,0,0,1,1,3.54,12,12,0,0,1-2.26,7.16c-7.22,7.86-17.86,11.49-28.19,12.52-7.33.73-13.31-.79-17.75-4.73C1028.35,888.69,1026,882,1026.29,873.43Zm43.92-46.19c-5.27.57-10.38,4.73-15.19,12.46a91,91,0,0,0-9.93,23.17,41.15,41.15,0,0,0,21.81-12.27c5.66-6,8.49-11.52,8.49-16.48S1073.66,826.86,1070.21,827.24Z" transform="translate(-7.42 -311.81)"/><path class="cls-3" d="M1149.16,883.4a12.62,12.62,0,0,1-3-4.67,18.6,18.6,0,0,1-1.17-6.94,45.82,45.82,0,0,1,1.84-11q1.85-7,4.7-15.93c2.53-7.77,3.79-11.66,6.32-19.42,6.52-20.21,13.34-41,15.56-62.17q.68-6.39,6.17-7a8.79,8.79,0,0,1,5.72,1c2.9,1.89,4.31,4.19,4.21,6.91a60.05,60.05,0,0,1-1.43,10q-1.29,6-3.31,13.07t-4.66,15.06l-10.38,31.67c-3.72,10.94-8.55,23.34-9,34.59-.09,2.61,1.1,3.94,3.31,3.7a13.22,13.22,0,0,0,5.75-2,12.12,12.12,0,0,1,3.35-1.72c1-.11,1.58.36,1.58,1.41q0,6.69-6.85,12-4.58,3.6-8.38,4a16.72,16.72,0,0,1-6.13-.23A10.12,10.12,0,0,1,1149.16,883.4Z" transform="translate(-7.42 -311.81)"/><path class="cls-3" d="M1246.54,855.86q0,6.92,4.89,6.41a14.07,14.07,0,0,0,5.6-1.64,10.33,10.33,0,0,1,3-1.36c1-.11,1.58.39,1.58,1.49,0,4.31-2.26,8.27-6.77,11.83-4.75,3.76-9.68,5.1-14.59,3.94-3.23-.77-5.66-3-7.22-6.68a14.12,14.12,0,0,1-1.12-5.22,50.23,50.23,0,0,1,.75-8.35c-3.25,7.9-9.93,17-17.37,21.56a20.92,20.92,0,0,1-8.8,3,15.33,15.33,0,0,1-8.08-1,15.1,15.1,0,0,1-5.83-4.67c-3.26-4.35-4.63-10.21-4.44-17.26.25-8.8,3.64-19.52,7.9-27.1a77.36,77.36,0,0,1,17.29-21.5c7-5.86,13.49-9.19,19.55-9.84s11,1.63,14.67,6.8q5.19-8.89,9.17-9.3c2.86-.3,5,0,6.47.9q4.13,2.58,2.93,5c-7.15,15.62-16.85,32.81-19.4,50.14A26.34,26.34,0,0,0,1246.54,855.86Zm-41.73,4.76c0,6,1.92,8.81,5.79,8.39q4.43-.46,10.9-8.69c7.32-9.46,12.64-20.37,16.77-31.56a117.79,117.79,0,0,0,3.91-12.14q-.3-5.08-4.29-7.07a7.49,7.49,0,0,0-4-.4,14.8,14.8,0,0,0-6.24,2.62,35.22,35.22,0,0,0-6.92,6.08,53.68,53.68,0,0,0-6.24,8.68,73.32,73.32,0,0,0-5.08,10.58A65.94,65.94,0,0,0,1204.81,860.62Z" transform="translate(-7.42 -311.81)"/><path class="cls-3" d="M1268.27,860.37a10,10,0,0,1,1-4.43,13.09,13.09,0,0,1,2.51-3.6,10.84,10.84,0,0,1,6.62-3.61c2-.2,3,.72,3,2.78q0,7.82,5.19,10.38a7,7,0,0,0,3.91.73,12.35,12.35,0,0,0,3.46-.79,9.15,9.15,0,0,0,2.63-1.69,7.27,7.27,0,0,0,2.71-5.46,10.66,10.66,0,0,0-1.36-5.39,40.25,40.25,0,0,0-3.38-5c-1.72-2.23-2.57-3.35-4.29-5.59q-9-11.12-9-21.27c0-5.61,2.38-11,7.14-16q8.11-8.57,20.83-9.81c7.42-.72,13.21.58,17.37,3.82,3.39,2.64,5.12,5.86,5.12,9.67a12.62,12.62,0,0,1-4.52,9.9q-4,3.54-8.12,3.11a3.8,3.8,0,0,1-2.78-1.58,3.6,3.6,0,0,1-.38-3.31,13,13,0,0,0,.61-4,8.81,8.81,0,0,0-.76-3.68,7.53,7.53,0,0,0-2-2.74,7.28,7.28,0,0,0-5.52-1.95,15.88,15.88,0,0,0-4.78,1.11,11.51,11.51,0,0,0-3.31,2.17,9.65,9.65,0,0,0-2.93,6.94,15,15,0,0,0,1.35,6.68,35.5,35.5,0,0,0,3.35,5.38q2,2.65,4.32,5.36a51.43,51.43,0,0,1,4.29,5.75q4.74,7.14,4.74,12.89a19.11,19.11,0,0,1-2.41,9.86,26.89,26.89,0,0,1-6.24,7.26,33.08,33.08,0,0,1-18.35,7.91c-6.46.65-11.6-.38-15.34-3.11A10.46,10.46,0,0,1,1268.27,860.37Z" transform="translate(-7.42 -311.81)"/><path class="cls-3" d="M1386.7,831c0-.91,0-1.36.08-2.26,1.44-15.77,4.83-29.42,11.43-43.43,5.59-11.85,14.3-23.56,24.51-31.46,8.06-6.24,17.44-12.5,28.43-13.16,7-.42,12.53,1.63,16.54,6.21,3.49,4,5.26,9,5.26,15.16q0,11-8,22.17a33.48,33.48,0,0,1-9.85,9.51,10.84,10.84,0,0,1-4.7,1.67,8.34,8.34,0,0,1-3.95-.63,10,10,0,0,1-3.08-2q-2.86-2.73-2.86-5.07a4,4,0,0,1,1.2-3.31q12.33-9.75,16.84-19.42a17.52,17.52,0,0,0,1.66-7.18q0-7.29-6.92-6.83-11,.74-22.71,14a103.3,103.3,0,0,0-18.5,30.27c-4.09,10.48-7.72,21.8-8.12,33.34-.36,10.49,2,17.51,7.52,20.69a12,12,0,0,0,7.07,1.34,17.91,17.91,0,0,0,8-2.63,27,27,0,0,0,6.58-5.6c3.91-4.79,5.9-9.64,6-14.49.09-3.65-1.2-6.11-3.91-7.32a15.4,15.4,0,0,0-3.57-1,12.62,12.62,0,0,1-3.16-.86c-.82-.36-1-1.15-.63-2.35a12.22,12.22,0,0,1,2.25-3.82q4.37-5.13,9.55-5.5a26.43,26.43,0,0,1,5.19.39,49,49,0,0,0,8.72.83c1.51-.1,2.7-.21,3.57-.35a20.29,20.29,0,0,0,2.67-.58,54.36,54.36,0,0,0,5.79-2c2.92-1.21,4.44-.62,4.44,1.71a16.13,16.13,0,0,1-1.43,6.67,17,17,0,0,1-3.91,5.51,19.71,19.71,0,0,1-13.23,5.53c.55,3.23-.61,7.51-3.46,12.87-4,8.53-13,17.23-21.81,20.73a33.66,33.66,0,0,1-11.32,2.74,28.62,28.62,0,0,1-11.54-1.32,22.61,22.61,0,0,1-9-5.62Q1386.7,846.07,1386.7,831Z" transform="translate(-7.42 -311.81)"/><path class="cls-3" d="M1546.64,837.66a1.46,1.46,0,0,1,1.73,1.66c0,4.37-2.15,8.1-6.46,11.23a19,19,0,0,1-10.23,3.28c-3.21.14-5.66-.5-7.37-1.93a12.13,12.13,0,0,1-4.59-9.71q0-7.44,6.25-23.07-11.6,16.15-16.25,21.56a86.9,86.9,0,0,1-8.12,8.43q-7.51,6.57-13.61,6.92-9.33.53-12.41-7.32a16.08,16.08,0,0,1-.9-5.62,28.14,28.14,0,0,1,1.09-7.21,82.12,82.12,0,0,1,2.82-8.4q1.73-4.4,3.76-9l4.06-9.26q7.83-17.82,5.79-20.93a8.83,8.83,0,0,0-3.38-2.67,1.84,1.84,0,0,1-.9-1.79,3.91,3.91,0,0,1,1.09-2.58,10.55,10.55,0,0,1,2.82-2.27,17.75,17.75,0,0,1,7.37-2.13,15.07,15.07,0,0,1,5.6.49,8.76,8.76,0,0,1,3.12,1.83,7.24,7.24,0,0,1,2.48,5.37,27.48,27.48,0,0,1-1,6.78q-1,3.76-2.55,8.21t-3.46,9.2q-5.19,12.46-7,16.47l-2.78,5.94c-1.55,3.55-2.33,6-2.33,7.43a4.75,4.75,0,0,0,.68,2.93,2.82,2.82,0,0,0,2.44.73,7.91,7.91,0,0,0,4.1-1.88,45.07,45.07,0,0,0,5.11-4.71q2.79-2.93,5.79-6.73t5.87-7.84a142.77,142.77,0,0,0,8.27-12.73c5.58-10.1,11-20.32,17-30.2q2.42-3.33,4.93-3.43a15.27,15.27,0,0,1,4.4.4,9.35,9.35,0,0,1,3.23,1.5c2.11,1.48,2.78,3,2,4.59-7.22,15.54-16.21,31.92-19.78,48.88-.25,2.27-.37,3.83-.37,4.68q0,5.71,3.46,5.57a11.24,11.24,0,0,0,5.34-1.37A8,8,0,0,1,1546.64,837.66Z" transform="translate(-7.42 -311.81)"/><path class="cls-3" d="M1586.87,837.18c1.31,0,2,.81,2,2.51,0,2.26-1,4.61-3.08,7.07a15.61,15.61,0,0,1-12.11,5.57q-8.73.25-12-6.7a13.48,13.48,0,0,1-1.2-6,29,29,0,0,1,1.24-7.9q1.24-4.37,3.08-9.19t4-9.79l4-9.59q4.37-10.73,4.36-14.11c0-2.25-.24-3.74-.71-4.45a6,6,0,0,0-1.54-1.65l-1.51-1a2,2,0,0,1-.75-1.82,4,4,0,0,1,1-2.55,9.37,9.37,0,0,1,2.67-2.18,17.16,17.16,0,0,1,7.89-1.93c7.37-.18,11.06,1.69,11.06,5.54q0,6.78-3.54,15.53t-6,14.16l-4.52,10.48q-4.95,11.56-5,16.6,0,3.32,3.31,3.22a11.43,11.43,0,0,0,4.89-1A6.55,6.55,0,0,1,1586.87,837.18Zm15.42-81.71a14.3,14.3,0,0,1-3.76,2.93,13.07,13.07,0,0,1-4.44,1.44,8,8,0,0,1-4.4-.62,10.15,10.15,0,0,1-3.57-2.71,11.39,11.39,0,0,1-3.23-7.51,9.35,9.35,0,0,1,4.36-9,12.92,12.92,0,0,1,6.8-2.48,21,21,0,0,1,5,.36,9.87,9.87,0,0,1,3.27,1.44q3.68,2.43,3.68,6a15.36,15.36,0,0,1-1,5.95A14.51,14.51,0,0,1,1602.29,755.47Z" transform="translate(-7.42 -311.81)"/><path class="cls-3" d="M1649.51,830.89c1.45,0,2.18,1,2.18,2.94a8.75,8.75,0,0,1-1.5,4.81q-2,4.35-8.12,8.26a25.89,25.89,0,0,1-13.91,4.48c-8.08,0-13.62-3.74-15.34-10.68-4.17-16.72,5.82-38.49,11.5-54.63-5.76-.46-8.9-1.42-9.4-2.92a4.6,4.6,0,0,1-.22-1.46,3.4,3.4,0,0,1,.71-1.85,10.82,10.82,0,0,1,1.84-2.05,8.43,8.43,0,0,1,5.34-2.24l5.94,0q8.13-19.08,11.58-21.7a6.13,6.13,0,0,1,3.69-1.21,9.39,9.39,0,0,1,3.38.54,7.63,7.63,0,0,1,2.41,1.5,6.83,6.83,0,0,1,2.4,5.05,8.46,8.46,0,0,1-.9,3.46c-2.23,4.83-3.34,7.25-5.56,12.09h1.8c3.11,0,5.61,0,7.52,0l4.29,0c.95,0,2.14-.06,3.57,0s2.14.55,2.14,1.6c0,6.62-7.82,9.81-23.46,9.82h-.6c-2,5.29-3.07,7.94-5.11,13.24-3.7,10.6-8.4,21.79-8.65,32.91a6.14,6.14,0,0,0,1.2,4.09c.8,1,2.31,1.45,4.51,1.44a15.56,15.56,0,0,0,6-1.15,26.3,26.3,0,0,0,4.74-2.52c1.35-.93,2.52-1.77,3.49-2.52A4.44,4.44,0,0,1,1649.51,830.89Z" transform="translate(-7.42 -311.81)"/><path class="cls-3" d="M1719.07,831.91c0,4.61,1.63,7,4.88,7.1a13,13,0,0,0,5.61-.83,8.81,8.81,0,0,1,3-.93,1.5,1.5,0,0,1,1.58,1.72q0,6.46-6.77,10.85c-4.75,3.07-9.69,3.72-14.59,1.88-3.24-1.22-5.66-3.82-7.22-7.67a15.35,15.35,0,0,1-1.13-5.37,47.5,47.5,0,0,1,.76-8.25q-7,14.08-17.37,19.27a19,19,0,0,1-8.8,2,16.52,16.52,0,0,1-8.09-2,18,18,0,0,1-5.82-5.36c-3.26-4.75-4.71-10.7-4.44-17.79a56.23,56.23,0,0,1,7.9-26.17,60.74,60.74,0,0,1,17.29-19.35c7-5,13.48-7.45,19.55-7.28s10.95,3.13,14.66,8.83q5.19-8.16,9.18-8,4.29.18,6.46,1.86,4.14,3.18,2.94,5.39c-7.17,14.61-17,30.89-19.4,47.34A25.83,25.83,0,0,0,1719.07,831.91Zm-41.74-.76q0,9,5.79,9.12,4.44.08,10.91-7.29c7.61-8.59,12.16-19,16.77-29.32a106.92,106.92,0,0,0,3.91-11.6,9.17,9.17,0,0,0-4.29-7.66,7.92,7.92,0,0,0-4-.95,13.16,13.16,0,0,0-6.25,1.78,28.77,28.77,0,0,0-6.91,5.17,44.51,44.51,0,0,0-6.24,7.87,63.11,63.11,0,0,0-9.67,32.88Z" transform="translate(-7.42 -311.81)"/><path class="cls-3" d="M1744.71,851.19a10.63,10.63,0,0,1-2.41-2.64,5.64,5.64,0,0,1-1-2.45,6.34,6.34,0,0,1,.42-2.46c.32-1,.76-2.13,1.31-3.51,6.25-15.54,15.56-33.64,15.34-49.88a6.37,6.37,0,0,0-2.48-5.25l-1.5-1.14a2.43,2.43,0,0,1-.72-1.88,3.62,3.62,0,0,1,.94-2.47,8.48,8.48,0,0,1,2.56-2,13.22,13.22,0,0,1,6.65-1.35,15.29,15.29,0,0,1,5.34,1.07,11,11,0,0,1,3.28,2.24,8.59,8.59,0,0,1,2.89,5.9,24.58,24.58,0,0,1-.68,6.05c-.47,2-1,4-1.69,5.94s-1.3,3.78-2,5.52a34.08,34.08,0,0,0-1.28,3.86,10.4,10.4,0,0,0-.45,3.28,5.84,5.84,0,0,0,2.18-2.94l2.93-5.38c5.18-8,10.45-17.12,19.1-22a12,12,0,0,1,6.5-1.08,8.41,8.41,0,0,1,6.13,3.17,10.06,10.06,0,0,1,2.45,6.1,18.92,18.92,0,0,1-.45,5.34,13.92,13.92,0,0,1-1.7,3.88c-1.65,2.67-3.66,3.91-6,3.73a3.06,3.06,0,0,1-1.81-.82l-1.65-1.56a8,8,0,0,0-4.78-2.54q-2.3-.18-5.56,2.6a50.37,50.37,0,0,0-6.81,7.27,132.6,132.6,0,0,0-19.4,34l-3.3,8.54a23.13,23.13,0,0,1-2.26,4.5,3.13,3.13,0,0,1-2.9,1.23,11.2,11.2,0,0,1-3.83-.91A14.39,14.39,0,0,1,1744.71,851.19Z" transform="translate(-7.42 -311.81)"/><path class="cls-3" d="M1807.5,855.32a10.9,10.9,0,0,1-2.41-2.72,5.83,5.83,0,0,1-1-2.48,6.26,6.26,0,0,1,.42-2.45c.32-.95.76-2.11,1.31-3.46,6.26-15.36,15.56-33.26,15.34-49.35a6.65,6.65,0,0,0-2.48-5.34l-1.5-1.19a2.52,2.52,0,0,1-.72-1.9,3.5,3.5,0,0,1,.94-2.44,8,8,0,0,1,2.56-1.88,13.22,13.22,0,0,1,6.65-1.11,15.83,15.83,0,0,1,5.34,1.27,11.31,11.31,0,0,1,3.27,2.35,9,9,0,0,1,2.9,6,24.77,24.77,0,0,1-.68,6q-.72,3-1.69,5.88c-.65,1.92-1.3,3.73-2,5.45a35,35,0,0,0-1.27,3.82,9.91,9.91,0,0,0-.45,3.26,5.64,5.64,0,0,0,2.18-2.87l2.93-5.27c5.16-7.78,10.45-16.74,19.1-21.27a11.79,11.79,0,0,1,6.5-.83,8.81,8.81,0,0,1,6.13,3.39,10.56,10.56,0,0,1,2.45,6.2,18.3,18.3,0,0,1-.46,5.32,13.28,13.28,0,0,1-1.69,3.82c-1.65,2.61-3.66,3.77-6,3.5a3.14,3.14,0,0,1-1.81-.89l-1.65-1.62a8.43,8.43,0,0,0-4.78-2.72q-2.3-.26-5.56,2.4a47.85,47.85,0,0,0-6.81,7,126.3,126.3,0,0,0-19.4,33.28c-1.32,3.37-2,5.05-3.31,8.42a21.5,21.5,0,0,1-2.25,4.42,3,3,0,0,1-2.9,1.14,11.44,11.44,0,0,1-3.83-1A14.74,14.74,0,0,1,1807.5,855.32Z" transform="translate(-7.42 -311.81)"/><path class="cls-3" d="M1928,851.62q0,6.92,4.89,7.7a12.36,12.36,0,0,0,5.6-.13,8.1,8.1,0,0,1,3-.55,1.73,1.73,0,0,1,1.58,1.92q0,6.47-6.76,10a15.37,15.37,0,0,1-14.59.07c-3.25-1.62-5.67-4.5-7.22-8.55a16.38,16.38,0,0,1-1.13-5.5,46.91,46.91,0,0,1,.75-8.16q-7,13.23-17.37,17.2a19.35,19.35,0,0,1-16.88-2.06,21.65,21.65,0,0,1-5.83-6c-3.25-5.12-4.7-11.24-4.43-18.29a53.47,53.47,0,0,1,25.19-42.62c7-4.15,13.48-5.85,19.55-4.94s11,4.46,14.66,10.62q5.19-7.51,9.18-6.85a12.62,12.62,0,0,1,6.46,2.66c2.76,2.48,3.74,4.41,2.93,5.77-7.28,14-16.66,29.09-19.4,44.91A25.2,25.2,0,0,0,1928,851.62Zm-41.73-5.76q0,9,5.79,9.79,4.44.6,10.9-6c7.68-7.77,12.2-17.57,16.77-27.3a91.92,91.92,0,0,0,3.91-11.12,10.56,10.56,0,0,0-4.28-8.18,8.76,8.76,0,0,0-4-1.44,12.14,12.14,0,0,0-6.24,1,24.62,24.62,0,0,0-6.92,4.35,37.57,37.57,0,0,0-6.24,7.13,53.37,53.37,0,0,0-5.07,9.35A57.52,57.52,0,0,0,1886.3,845.86Z" transform="translate(-7.42 -311.81)"/><path class="cls-3" d="M1949.77,862a8.34,8.34,0,0,1,1-4.15,8.84,8.84,0,0,1,2.52-2.9,8.24,8.24,0,0,1,6.62-1.75,3.32,3.32,0,0,1,3,3.63q0,7.83,5.19,11.87a9.07,9.07,0,0,0,3.91,1.86,11.27,11.27,0,0,0,3.46.21,6.27,6.27,0,0,0,2.63-.92,5.17,5.17,0,0,0,2.71-4.66,13.14,13.14,0,0,0-1.35-5.79,58.74,58.74,0,0,0-3.39-6l-4.28-6.83q-9-13.74-9-23.87c0-5.61,2.39-10.28,7.15-13.93,5.4-4.15,12.35-5.39,20.83-3.67,7.42,1.52,13.2,4.61,17.37,9.14,3.39,3.7,5.11,7.46,5.11,11.27,0,4-1.51,6.8-4.51,8.49a8.85,8.85,0,0,1-8.12.59,5.63,5.63,0,0,1-2.78-2.42,4,4,0,0,1-.38-3.43,11.61,11.61,0,0,0,.6-3.78,10.51,10.51,0,0,0-.75-3.92,11.46,11.46,0,0,0-2-3.35,10.2,10.2,0,0,0-5.53-3.62,14.76,14.76,0,0,0-4.77-.32,8,8,0,0,0-3.31,1.19,7.05,7.05,0,0,0-2.93,6.08,17.65,17.65,0,0,0,1.35,7.07,51,51,0,0,0,3.35,6.37q2,3.25,4.32,6.65a80.11,80.11,0,0,1,4.29,7q4.73,8.56,4.73,14.33t-2.4,9.12a17.51,17.51,0,0,1-6.24,5.38,27,27,0,0,1-18.35,2.52c-6.47-1.22-11.6-3.7-15.34-7.47C1951.32,868.94,1949.77,865.57,1949.77,862Z" transform="translate(-7.42 -311.81)"/></g><g id="texto_1" data-name="texto 1"><text class="cls-5" transform="translate(758.64 299.05) rotate(-31.77)">E</text><text class="cls-5" transform="matrix(0.92, -0.38, 0.38, 0.92, 855.4, 243.25)">s</text><text class="cls-5" transform="translate(945.87 209.29) rotate(-14.46)">t</text><text class="cls-5" transform="translate(1023.98 191.75) rotate(-7.79)">.</text><text class="cls-5" transform="translate(1091.7 184.52) rotate(-1.77)"> </text><text class="cls-5" transform="translate(1157.98 183.98) rotate(5.14)">1</text><text class="cls-5" transform="matrix(0.97, 0.24, -0.24, 0.97, 1246.07, 194.06)">9</text><text class="cls-5" transform="translate(1344.45 221.05) rotate(22.98)">9</text><text class="cls-5" transform="translate(1437.25 263.49) rotate(32.18)">9</text></g><g id="texto_2" data-name="texto 2"><text class="cls-5" transform="matrix(0.21, 0.98, -0.98, 0.21, 410.38, 930.01)">R</text><text class="cls-5" transform="translate(475.97 1139.65) rotate(60.85)">E</text><text class="cls-5" transform="translate(597.19 1315.29) rotate(44.09)">S</text><text class="cls-5" transform="translate(761.06 1446.72) rotate(27.12)">T</text><text class="cls-5" transform="matrix(0.98, 0.18, -0.18, 0.98, 953.63, 1525)">A</text><text class="cls-5" transform="translate(1175.38 1544.19) rotate(-7.41)">U</text><text class="cls-5" transform="translate(1398.23 1492.83) rotate(-25.34)">R</text><text class="cls-5" transform="translate(1587.25 1380.27) rotate(-43.03)">A</text><text class="cls-5" transform="translate(1737.48 1210.85) rotate(-61.16)">N</text><text class="cls-5" transform="matrix(0.19, -0.98, 0.98, 0.19, 1828.86, 998.02)">T</text></g><g id="guitarra_2" data-name="guitarra 2"><path d="M1041.41,1289.33c-1.34,2.3-3.13,3.44-4.43,5-1.54,1.9-1.56,1.87-.11,3.71a140.59,140.59,0,0,1,13.5,20c5.28,9.72,9.15,19.89,9.93,31.07a51.39,51.39,0,0,1-7.93,31.34c-6.33,10.26-15.45,17.33-25.62,23.33-7.13,4.2-14.6,7.74-21.86,11.69-1.72.94-3.4,1.94-5.12,2.88-8.5,4.63-12.92,12.23-15.52,21.18-2.34,8.07-3.59,16.36-5.1,24.59-2,11.12-4.6,22.1-8.84,32.58a110.45,110.45,0,0,1-16.25,27.78,121.06,121.06,0,0,1-28.46,26c-13.42,8.74-28.05,13.54-44.18,13.18a83.52,83.52,0,0,1-27.89-5.65,137.89,137.89,0,0,1-32.47-18,276.16,276.16,0,0,1-34.46-30.36,252.9,252.9,0,0,1-28.71-34.46,131.65,131.65,0,0,1-16.78-33.4c-5.68-17.55-5.61-35,1-52.26a83.38,83.38,0,0,1,10.85-19.5,121.79,121.79,0,0,1,34.89-32.23c12.44-7.55,26-12.21,40.19-15,10-2,20.16-3.64,30.22-5.63a49.23,49.23,0,0,0,15.61-5.79c4.53-2.67,7.69-6.61,10.22-11,4.38-7.63,8.46-15.43,12.79-23.09,4.45-7.87,9.46-15.39,16.24-21.48,16.41-14.77,35.21-18.19,56-11.25a100.76,100.76,0,0,1,27.52,14.78,77.46,77.46,0,0,1,8.32,6.49c1.08,1.05,2.06,1,3.11-.15s2.41-2.28,3.51-3.51c.86-1,1.54-1.15,2.52-.15q11.83,12.09,23.72,24.12C1039,1287.26,1040.18,1288.23,1041.41,1289.33Zm-128.8,184.6c.27-1.52-1.08-2.29-2-3.2q-15.51-15.84-31.11-31.61-15.27-15.46-30.58-30.89c-6.17-6.26-12.3-12.56-18.48-18.81-2.46-2.49-4.05-2.64-6.7-.35-2.43,2.09-4.66,4.41-6.95,6.66a41.37,41.37,0,0,0-3.4,3.61c-1.78,2.24-1.68,3.58.28,5.65q3.3,3.48,6.68,6.91,12.43,12.57,24.88,25.12,12,12.13,24,24.31,12.63,12.8,25.31,25.57c2.47,2.5,3.94,2.68,6.62.24,3.29-3,6.45-6.13,9.57-9.29A5.26,5.26,0,0,0,912.61,1473.93Zm60.27-115.72a29.36,29.36,0,1,0-29.71,29.17A29.35,29.35,0,0,0,972.88,1358.21Zm10.12-8.5a36,36,0,0,1-4.4,4.42c-2.52,1.78-2.91,4.21-3.12,7a30.42,30.42,0,0,1-11.15,21.45,32,32,0,0,1-45.74-4.09c-10.36-12.71-9.85-30,1.28-42.34a30.94,30.94,0,0,1,22.82-10.29c.91,0,1.82.2,2.63-.54,2.32-2.12,4.65-4.23,6.86-6.66-14.59-3.84-33.21,1.89-43.23,18.13a40.56,40.56,0,0,0,53.48,57.13C979,1385.21,987,1365.93,983,1349.71Zm-26.91-34.45,30.2,30.62c1.12-.34,1.56-1.24,2.24-1.85,1.57-1.42,1.55-1.47.17-2.86q-13.05-13.23-26.13-26.43C959.42,1311.57,959.38,1311.61,956.09,1315.26Zm41.68,19.07c4.42-4.17,4.17-2.84.81-6.34-8.14-8.49-16.54-16.73-24.8-25.11-2.4-2.43-2.37-2.49-4.6-.14-.38.41-1.08.6-1,1.58ZM985.12,1288a4.24,4.24,0,0,0-1.84,1.26c-2.22,1.87-2.17,1.85,0,4,5.68,5.71,11.31,11.47,17,17.2l10.51,10.62,3.41-3.69Zm11.3-11.28,28.87,29.22,3.8-3.26-29-29.35Z" transform="translate(-7.42 -311.81)"/><path d="M1204.51,1066.28c-3.92,0-6-1.36-7-4.38a4.71,4.71,0,0,1,1.36-5.09,4.46,4.46,0,0,1,5.2-.52,20.86,20.86,0,0,1,4.31,3.46c1.58,1.4,1.61,1.49,3.11-.1q5.2-5.54,10.32-11.16c2.31-2.51,4.57-5.06,6.87-7.57,1.55-1.69,3.57-1.91,5.71-1.73,4.85.42,9.14,2.45,13.32,4.75,10.23,5.63,15.67,14.68,18.17,25.76a7.78,7.78,0,0,1-2.8,8.27c-6.51,5.58-12.8,11.41-19.33,17.29,1.09,1.31,2.1,2.67,3.28,3.88a7.4,7.4,0,0,1,1.43,2,5.07,5.07,0,0,1-.56,5.5,4.92,4.92,0,0,1-5.74.93,5.61,5.61,0,0,1-3.51-4.75c-.07-.92,0-1.85,0-2.78.16-.1.66,0,.28-.42l-.27.44-10.47,9.08c1.16,1.41,2.23,2.74,3.34,4a8.11,8.11,0,0,1,1.2,1.39c1.22,2.26,1,4.81-.61,6.27a5.27,5.27,0,0,1-6.58,0c-2.25-1.68-2.82-3.95-2.32-6.6.49,0,.74-.51.44-.71-.71-.45-.89.21-1.06.74-2.69,2.41-5.36,4.84-8.09,7.19-.79.68-.92,1.11-.21,2,1,1.26,2.12,2.51,3.18,3.77a4.8,4.8,0,0,1,.77,5.48,4.36,4.36,0,0,1-4.21,2.62,6.32,6.32,0,0,1-5.76-5.2,13.06,13.06,0,0,1,.06-2.16c.3-.23.62-.59.27-.88s-.36.15-.37.41c-3.14,2-5.65,4.74-8.38,7.21-1.61,1.46-3.09,2.5-5.41,2.34a8.26,8.26,0,0,0-4.2.87,2.45,2.45,0,0,1-3.39-.59q-10.06-10.3-20.22-20.54c-.6-.6-.85-1-.32-1.78a11.57,11.57,0,0,0,1.42-5.94,4.57,4.57,0,0,1,1.33-3.28c2.78-2.91,5.42-6,8.11-9,.49-.22,1.27-.34.82-1.11-.15-.26-.72,0-.88.49a6.29,6.29,0,0,1-6.07-2.3,5,5,0,0,1,.13-7c1.64-1.63,4.32-1.69,6.49,0,1.61,1.27,3.1,2.69,4.75,4.14a117.25,117.25,0,0,0,8.48-9.2,2.14,2.14,0,0,0,.23-.38s-.14-.19-.2-.18a10.71,10.71,0,0,1-3.91,0,6.72,6.72,0,0,1-3.31-3.13c-1-2.12-.55-4.75,1-6a5.51,5.51,0,0,1,6.88.39c.69.6,1,1.49,2,1.94a14.13,14.13,0,0,1,2.43,2l8.67-9.58c.57,0,1.06-.74,1-.88C1205.23,1065.46,1204.86,1066,1204.51,1066.28Zm25.88,23.31-6,5.37-5.28,4.75c1.16,2.22,3.32,3.52,4.9,5.36.11.12.37.11.66.18l11.5-10.52Zm-30.6-9.39c1.14,2.08,3.16,3.28,4.59,5,.61.73,1.22.45,1.81-.21,3.14-3.53,6.32-7,9.55-10.61l-5.45-5.47Zm10.09,38.45,10.62-9.66-4.59-4.87a1.16,1.16,0,0,0-1.87-.13c-3,2.68-6,5.34-9,8a1.26,1.26,0,0,0,0,2.12C1206.64,1115.55,1207.91,1117.36,1209.88,1118.65ZM1196,1084.37l-8.75,9.37c-.72.77-1.07,1.48,0,2.31,1.66,1.36,2.85,3.22,4.81,4.5l7.55-8.22c.42-.45.78-1,1.22-1.4.72-.72.79-1.45,0-2.11C1199.17,1087.5,1198,1085.73,1196,1084.37Zm23.2-13.69c1.54-1.73,2.86-3.17,4.13-4.65,1.7-2,1.84-3.81.44-5.19a3.83,3.83,0,0,0-5.56-.28,19.42,19.42,0,0,0-4.23,4.75Zm15.34,15.3c.65.69,1.15,1.2,1.63,1.73,3.86,4.22,4.59,4.18,8.22-.41,1.54-2,1.55-4.08,0-5.58s-3.23-1.49-5.25.18C1237.6,1083.15,1236.16,1084.5,1234.51,1086Zm-29,36.21c-.89-1.8-2.66-2.79-3.91-4.27s-1.81-1.48-3.17,0c-1.69,1.78-1.84,4.61-.34,6.14s3.77,1.67,5.79,0C1204.48,1123.49,1205.26,1123.06,1205.51,1122.19Zm-22.92-23.4a11,11,0,0,0-2.43,3,3.4,3.4,0,0,0-.11,3.81,3.82,3.82,0,0,0,3.66,1.91c2-.1,3.43-1.22,4.6-3.13Z" transform="translate(-7.42 -311.81)"/><path d="M1107,1172.67c-.42-.71.06-1.06.53-1.51q7.26-6.89,14.48-13.82l9.77-9.37.22.07.21-.13a10.59,10.59,0,0,0,1.08,1.48c5.47,5.55,11,11,16.42,16.65,2.12,2.19,4.57,4.08,6.23,6.7-7.63,7.39-14.9,15.13-22.34,22.7-.83.85-1.49,2.51-3.11,1-2.42-2.52-4.79-5.1-7.28-7.55C1117.75,1183.49,1112.62,1177.82,1107,1172.67Z" transform="translate(-7.42 -311.81)"/><path d="M1080.12,1197.12l22.31-21.24,1.14.13c1.64,1.7,3.27,3.42,4.94,5.1q9.46,9.53,19,19a1.24,1.24,0,0,1-.2,1.84c-4.65,4.67-9.25,9.39-13.85,14.12-1.43,1.46-2.81,3-4.22,4.46-.82.76-1.67,1.5-2.46,2.29a1.31,1.31,0,0,1-1.67.17,3.18,3.18,0,0,0-1-1.49c-4.26-4.33-8.47-8.7-12.8-12.94-3.74-3.67-7.2-7.62-11.18-11A.53.53,0,0,0,1080.12,1197.12Z" transform="translate(-7.42 -311.81)"/><path d="M1135.52,1144.17c4.41-3.59,8.32-7.72,12.45-11.6,3.83-3.6,7.64-7.23,11.36-10.75l23.65,22.92-23.35,24.1a3,3,0,0,1-.52-.32c-5.35-5.42-10.77-10.77-16-16.29C1140.55,1149.57,1137.66,1147.22,1135.52,1144.17Z" transform="translate(-7.42 -311.81)"/><path d="M1059.37,1221.33l-2.07-2.5,19-18,.25.08.24-.08a3.11,3.11,0,0,0,1.85,1.9,17.69,17.69,0,0,0,1.15,1.44c5.59,5.68,11.14,11.39,16.8,17,2,1.95,3.54,4.33,6.05,5.7-.31.4-.6.83-.94,1.2-2.49,2.75-5.41,5.1-7.61,8.12a99.27,99.27,0,0,0-9.2,9.26,1.7,1.7,0,0,1-1.65,0c-3.3-3.39-6.56-6.82-9.91-10.15C1068.66,1230.63,1064.28,1225.72,1059.37,1221.33Z" transform="translate(-7.42 -311.81)"/><path d="M1080.52,1249.93l-13.23,13.4c-1,1-2,2.06-3,3.13-.53.59-1.09.43-1.69.25a16.69,16.69,0,0,0-1.31-1.7c-5.2-5.32-10.33-10.71-15.67-15.9-3.1-3-5.86-6.38-9.27-9.08-.38-1.12.4-1.69,1.08-2.33l15.85-15,1.17.55c2.37,2.43,4.71,4.87,7.1,7.27q9.14,9.18,18.29,18.35C1080.07,1249.2,1080.29,1249.57,1080.52,1249.93Z" transform="translate(-7.42 -311.81)"/><path d="M1059.67,1271.14l-15.17,14.54c-2.82-2.82-6-6-9.18-9.17-5.81-5.87-11.58-11.77-17.4-17.63-.81-.82-1.41-1.35-.21-2.45q6.75-6.18,13.3-12.57c.83-.81,1.41-1.07,2.3-.29a20.5,20.5,0,0,0,1.36,1.69q6.86,6.91,13.75,13.8c3.64,3.64,7.08,7.49,10.95,10.89Z" transform="translate(-7.42 -311.81)"/><path class="cls-6" d="M1055.72,1221.33a1.94,1.94,0,0,0-1.26,1.88l-1.17-.55a3.59,3.59,0,0,1,1.66-2C1055.67,1220.18,1055.68,1220.85,1055.72,1221.33Z" transform="translate(-7.42 -311.81)"/><path class="cls-7" d="M1105.56,1173.38l-2,2.63-1.14-.13C1103.24,1174.75,1103.93,1173.47,1105.56,1173.38Z" transform="translate(-7.42 -311.81)"/><path class="cls-8" d="M1083.09,1246.25l.15-.84a1.7,1.7,0,0,0,1.65,0c-.86,1.06-1.34,2.54-3,2.67,0-.23,0-.46,0-.68l.58-.57,0,0Z" transform="translate(-7.42 -311.81)"/><path class="cls-9" d="M1060.69,1269.28l1.27-.63c0,1.49-1.27,1.9-2.29,2.49l-.3-1.19.73-.13Z" transform="translate(-7.42 -311.81)"/><path class="cls-10" d="M1187,1081.26a10.71,10.71,0,0,0,3.91,0c.06,0,.21.15.2.18a2.14,2.14,0,0,1-.23.38C1189.58,1081.91,1188.17,1082.48,1187,1081.26Z" transform="translate(-7.42 -311.81)"/><path class="cls-11" d="M1128.25,1200.18l2.22-2.06A1.89,1.89,0,0,1,1128.25,1200.18Z" transform="translate(-7.42 -311.81)"/><path class="cls-12" d="M1078.09,1199a1.85,1.85,0,0,1-1.3,1.87l-.24.08-.25-.08C1076.46,1199.78,1077.41,1199.49,1078.09,1199Z" transform="translate(-7.42 -311.81)"/><path class="cls-8" d="M1079.85,1248.83l2-.72a1.71,1.71,0,0,1-1.36,1.82C1080.29,1249.57,1080.07,1249.2,1079.85,1248.83Z" transform="translate(-7.42 -311.81)"/><path class="cls-13" d="M1204.51,1066.28c.35-.29.72-.82,1.12-.23.1.14-.39.83-1,.88C1204.62,1066.71,1204.57,1066.49,1204.51,1066.28Z" transform="translate(-7.42 -311.81)"/><path class="cls-14" d="M1177.13,1096.18c.16-.44.73-.75.88-.49.45.77-.33.89-.82,1.11A3.26,3.26,0,0,1,1177.13,1096.18Z" transform="translate(-7.42 -311.81)"/><path class="cls-15" d="M1080,1197.56c-.21.63-.76.79-1.32,1a1.57,1.57,0,0,1,1.4-1.41A.53.53,0,0,1,1080,1197.56Z" transform="translate(-7.42 -311.81)"/><path class="cls-16" d="M1222.61,1114.26c.17-.53.35-1.19,1.06-.74.3.2,0,.67-.44.71Z" transform="translate(-7.42 -311.81)"/><path class="cls-17" d="M1133,1147.23a.83.83,0,0,1-.77.68l-.21.13-.22-.07C1131.89,1147.3,1132.38,1147.2,1133,1147.23Z" transform="translate(-7.42 -311.81)"/><path class="cls-18" d="M1133.57,1146.7a.66.66,0,0,1-.65.56c-.05-.56,0-1,.67-1.24C1133.58,1146.25,1133.57,1146.47,1133.57,1146.7Z" transform="translate(-7.42 -311.81)"/><path class="cls-19" d="M1208.25,1127.47c0-.26.07-.67.37-.41s0,.65-.27.88A.28.28,0,0,1,1208.25,1127.47Z" transform="translate(-7.42 -311.81)"/><path class="cls-20" d="M1157.81,1170.29c0-.25.14-.52.47-.43.11,0,.16.28.24.42Z" transform="translate(-7.42 -311.81)"/><path class="cls-21" d="M1062.56,1268.06v-.67C1063.08,1267.62,1063,1267.84,1062.56,1268.06Z" transform="translate(-7.42 -311.81)"/><path class="cls-22" d="M1061.94,1268.67l.64-.65Z" transform="translate(-7.42 -311.81)"/><path class="cls-23" d="M1035.2,1240.64h-.66C1034.76,1240.13,1035,1240.18,1035.2,1240.64Z" transform="translate(-7.42 -311.81)"/><path class="cls-24" d="M1157.23,1171.59c-.27,0-.55-.14-.44-.48,0-.11.29-.16.45-.24C1157.24,1171.11,1157.23,1171.35,1157.23,1171.59Z" transform="translate(-7.42 -311.81)"/><path class="cls-25" d="M1133.57,1146.7c0-.23,0-.45,0-.68l.62,0A.73.73,0,0,1,1133.57,1146.7Z" transform="translate(-7.42 -311.81)"/><path class="cls-23" d="M1034.56,1240.63l-.64.64Z" transform="translate(-7.42 -311.81)"/><path class="cls-26" d="M1134.17,1145.31c.26.06.56.12.46.48,0,.11-.31.15-.47.23Z" transform="translate(-7.42 -311.81)"/><path class="cls-27" d="M1033.94,1241.25c0,.2,0,.41,0,.61C1033.39,1241.64,1033.51,1241.44,1033.94,1241.25Z" transform="translate(-7.42 -311.81)"/><path class="cls-28" d="M1157.19,1170.93a.65.65,0,0,1,.68-.68A.61.61,0,0,1,1157.19,1170.93Z" transform="translate(-7.42 -311.81)"/><path class="cls-29" d="M1205.51,1122.19c-.25.87-1,1.3-1.63,1.8-2,1.7-4.19,1.66-5.79,0s-1.35-4.36.34-6.14c1.36-1.44,1.86-1.52,3.17,0S1204.62,1120.39,1205.51,1122.19Z" transform="translate(-7.42 -311.81)"/><path class="cls-30" d="M1182.59,1098.79l5.72,5.56c-1.17,1.91-2.55,3-4.6,3.13a3.82,3.82,0,0,1-3.66-1.91,3.4,3.4,0,0,1,.11-3.81A11,11,0,0,1,1182.59,1098.79Z" transform="translate(-7.42 -311.81)"/><path class="cls-31" d="M1238.67,1100l.27-.44c.38.44-.12.32-.28.42Z" transform="translate(-7.42 -311.81)"/><path class="cls-32" d="M1104.28,1225.4a1.06,1.06,0,0,1,1-1Z" transform="translate(-7.42 -311.81)"/><path d="M1226.3,1288.91c1.34,2.3,3.14,3.44,4.43,5,1.54,1.89,1.56,1.86.12,3.7a141.5,141.5,0,0,0-13.51,20c-5.28,9.72-9.14,19.9-9.92,31.07a51.41,51.41,0,0,0,7.92,31.35c6.33,10.25,15.45,17.33,25.63,23.32,7.13,4.2,14.6,7.74,21.85,11.69,1.72.94,3.41,2,5.13,2.88,8.5,4.63,12.92,12.23,15.52,21.19,2.34,8.06,3.59,16.35,5.09,24.58,2,11.12,4.61,22.1,8.85,32.58a110,110,0,0,0,16.25,27.79,121,121,0,0,0,28.46,26c13.41,8.74,28.05,13.54,44.18,13.18a83.76,83.76,0,0,0,27.89-5.64,138.49,138.49,0,0,0,32.47-18,276.07,276.07,0,0,0,34.45-30.36,253.71,253.71,0,0,0,28.72-34.46,131.76,131.76,0,0,0,16.78-33.39c5.68-17.56,5.61-35-1-52.27a83.05,83.05,0,0,0-10.86-19.5,121.77,121.77,0,0,0-34.88-32.23c-12.45-7.55-26-12.2-40.19-15-10.05-2-20.17-3.65-30.22-5.64a49.51,49.51,0,0,1-15.62-5.78c-4.53-2.67-7.68-6.61-10.22-11-4.38-7.63-8.46-15.43-12.79-23.08-4.45-7.88-9.46-15.39-16.23-21.49-16.42-14.77-35.21-18.19-56-11.25a100.62,100.62,0,0,0-27.52,14.78,76.75,76.75,0,0,0-8.32,6.49c-1.09,1-2.06,1-3.12-.15s-2.4-2.28-3.5-3.51c-.86-1-1.54-1.15-2.52-.15q-11.83,12.09-23.73,24.12C1228.75,1286.84,1227.53,1287.81,1226.3,1288.91Zm128.81,184.6c-.27-1.52,1.07-2.28,2-3.19q15.51-15.85,31.11-31.62,15.27-15.46,30.58-30.89c6.18-6.26,12.31-12.55,18.48-18.81,2.46-2.49,4-2.64,6.71-.35,2.43,2.1,4.66,4.42,6.94,6.67a41.37,41.37,0,0,1,3.41,3.6c1.78,2.24,1.68,3.58-.28,5.65q-3.32,3.48-6.68,6.91-12.43,12.57-24.88,25.12-12,12.14-24,24.32-12.65,12.8-25.31,25.56c-2.47,2.5-4,2.69-6.63.24-3.28-3-6.44-6.13-9.56-9.29A5.21,5.21,0,0,1,1355.11,1473.51Zm-60.27-115.71a29.36,29.36,0,1,1,29.7,29.17A29.35,29.35,0,0,1,1294.84,1357.8Zm-10.12-8.51a35.46,35.46,0,0,0,4.4,4.43c2.52,1.77,2.91,4.2,3.12,7a30.41,30.41,0,0,0,11.14,21.44,32,32,0,0,0,45.75-4.09c10.36-12.71,9.85-30-1.29-42.34A30.9,30.9,0,0,0,1325,1325.4c-.91,0-1.82.2-2.63-.54-2.32-2.12-4.66-4.23-6.86-6.65,14.59-3.85,33.2,1.88,43.22,18.12a40.56,40.56,0,0,1-53.48,57.13C1288.68,1384.79,1280.69,1365.51,1284.72,1349.29Zm26.91-34.44-30.2,30.62c-1.12-.35-1.57-1.25-2.24-1.86-1.57-1.42-1.55-1.47-.18-2.86q13.07-13.23,26.14-26.42C1308.3,1311.16,1308.33,1311.19,1311.63,1314.85ZM1270,1333.91c-4.42-4.17-4.18-2.83-.82-6.34,8.15-8.49,16.54-16.73,24.81-25.1,2.4-2.44,2.37-2.49,4.6-.14.38.4,1.08.59,1,1.57Zm12.64-46.31a4.29,4.29,0,0,1,1.85,1.27c2.21,1.86,2.16,1.84,0,4-5.68,5.71-11.32,11.47-17,17.2-3.47,3.52-7,7-10.51,10.62l-3.42-3.68Zm-11.3-11.28-28.86,29.22-3.81-3.26,29-29.35Z" transform="translate(-7.42 -311.81)"/><path d="M1063.2,1065.86c3.93,0,6-1.35,7-4.37a4.73,4.73,0,0,0-1.36-5.1,4.47,4.47,0,0,0-5.2-.51,20.87,20.87,0,0,0-4.32,3.45c-1.58,1.41-1.61,1.49-3.1-.1-3.48-3.68-6.9-7.42-10.33-11.15-2.3-2.52-4.56-5.07-6.87-7.58-1.55-1.69-3.56-1.91-5.7-1.73-4.86.42-9.14,2.45-13.32,4.75-10.23,5.64-15.67,14.68-18.17,25.76a7.76,7.76,0,0,0,2.8,8.27c6.5,5.58,12.79,11.42,19.33,17.29-1.09,1.31-2.11,2.67-3.28,3.88a7.54,7.54,0,0,0-1.44,2,5.08,5.08,0,0,0,.57,5.5,4.9,4.9,0,0,0,5.74.92,5.6,5.6,0,0,0,3.5-4.75c.07-.92,0-1.85,0-2.78-.15-.1-.65,0-.28-.42l.27.45c3.42,3,6.85,5.93,10.47,9.08-1.15,1.4-2.22,2.73-3.33,4a8.05,8.05,0,0,0-1.2,1.39c-1.22,2.26-1,4.82.61,6.27a5.23,5.23,0,0,0,6.57,0c2.26-1.68,2.83-3.94,2.33-6.59-.49,0-.74-.52-.44-.71.7-.46.89.2,1.06.73,2.69,2.41,5.35,4.84,8.09,7.2.79.68.92,1.11.2,2-1.05,1.27-2.12,2.52-3.17,3.78a4.78,4.78,0,0,0-.78,5.47,4.37,4.37,0,0,0,4.22,2.62,6.33,6.33,0,0,0,5.76-5.19,13.15,13.15,0,0,0-.06-2.17c-.31-.23-.62-.59-.28-.88s.36.15.38.41c3.14,2,5.65,4.74,8.38,7.22,1.6,1.45,3.09,2.49,5.41,2.33a8.39,8.39,0,0,1,4.2.87,2.44,2.44,0,0,0,3.38-.59q10.07-10.31,20.23-20.53c.59-.6.84-1,.31-1.79a11.66,11.66,0,0,1-1.41-5.94,4.59,4.59,0,0,0-1.33-3.28c-2.79-2.9-5.42-6-8.11-9-.49-.22-1.27-.34-.83-1.11.16-.26.73,0,.89.49a6.29,6.29,0,0,0,6.07-2.3,5,5,0,0,0-.13-7c-1.65-1.64-4.33-1.69-6.49,0-1.62,1.27-3.1,2.7-4.75,4.15a115.48,115.48,0,0,1-8.48-9.21,1.83,1.83,0,0,1-.23-.38s.14-.19.2-.18a10.93,10.93,0,0,0,3.91,0,6.78,6.78,0,0,0,3.31-3.14c1-2.12.54-4.75-1-6a5.53,5.53,0,0,0-6.88.39c-.69.6-1,1.49-2,1.94a13.76,13.76,0,0,0-2.43,2l-8.68-9.57c-.57-.06-1-.74-1-.89C1062.48,1065,1062.86,1065.57,1063.2,1065.86Zm-25.87,23.31,6,5.37,5.28,4.75c-1.17,2.22-3.32,3.53-4.9,5.36-.11.12-.38.11-.66.18l-11.51-10.52Zm30.6-9.39c-1.14,2.08-3.16,3.29-4.6,5-.6.73-1.22.45-1.8-.2-3.15-3.53-6.32-7-9.55-10.62l5.45-5.47Zm-10.09,38.45-10.62-9.66,4.59-4.87a1.15,1.15,0,0,1,1.86-.13c3,2.68,6,5.34,9,8a1.26,1.26,0,0,1,0,2.12C1061.07,1115.13,1059.81,1116.94,1057.84,1118.23Zm13.9-34.28c3,3.2,5.87,6.29,8.76,9.37.71.77,1.06,1.48,0,2.32-1.66,1.35-2.85,3.22-4.81,4.49l-7.55-8.21c-.42-.46-.79-1-1.22-1.41-.73-.72-.8-1.44,0-2.1C1068.55,1087.09,1069.7,1085.31,1071.74,1084Zm-23.19-13.69c-1.54-1.73-2.86-3.17-4.13-4.65-1.7-2-1.84-3.81-.44-5.19a3.82,3.82,0,0,1,5.55-.28,19.39,19.39,0,0,1,4.23,4.75Zm-15.34,15.3-1.64,1.73c-3.85,4.22-4.58,4.19-8.21-.4-1.55-2-1.55-4.09,0-5.59s3.24-1.48,5.25.18C1030.12,1082.73,1031.55,1084.09,1033.21,1085.56Zm29,36.21c.9-1.8,2.67-2.79,3.91-4.27s1.81-1.48,3.18,0c1.68,1.78,1.84,4.61.33,6.14s-3.76,1.67-5.79,0C1063.24,1123.07,1062.45,1122.65,1062.2,1121.77Zm22.93-23.4a11.34,11.34,0,0,1,2.43,3,3.43,3.43,0,0,1,.11,3.81,3.83,3.83,0,0,1-3.67,1.91c-2-.1-3.42-1.22-4.6-3.13Z" transform="translate(-7.42 -311.81)"/><path d="M1160.74,1172.25c.43-.71,0-1.06-.52-1.5q-7.26-6.9-14.48-13.82l-9.77-9.38-.23.07-.2-.12a13.24,13.24,0,0,1-1.08,1.47c-5.48,5.56-11,11-16.43,16.65-2.11,2.19-4.57,4.08-6.22,6.71,7.63,7.38,14.9,15.12,22.33,22.7.83.84,1.5,2.5,3.11,1,2.43-2.52,4.79-5.1,7.28-7.55C1150,1183.07,1155.1,1177.4,1160.74,1172.25Z" transform="translate(-7.42 -311.81)"/><path d="M1187.59,1196.7l-22.31-21.24-1.13.13c-1.65,1.7-3.27,3.42-4.94,5.1q-9.46,9.52-19,19a1.23,1.23,0,0,0,.2,1.84c4.65,4.67,9.25,9.4,13.85,14.12,1.43,1.46,2.81,3,4.21,4.47.83.75,1.68,1.49,2.47,2.28a1.3,1.3,0,0,0,1.67.17,3,3,0,0,1,1-1.49c4.25-4.32,8.46-8.69,12.79-12.94,3.75-3.67,7.21-7.62,11.19-11A.54.54,0,0,1,1187.59,1196.7Z" transform="translate(-7.42 -311.81)"/><path d="M1132.19,1143.75c-4.4-3.59-8.31-7.71-12.44-11.6-3.83-3.6-7.64-7.22-11.36-10.74l-23.65,22.91,23.35,24.1a2.43,2.43,0,0,0,.51-.32c5.36-5.42,10.77-10.77,16-16.28C1127.16,1149.15,1130.06,1146.8,1132.19,1143.75Z" transform="translate(-7.42 -311.81)"/><path d="M1208.34,1220.92l2.08-2.5-19-18-.24.09-.24-.09a3.11,3.11,0,0,1-1.85,1.9c-.39.48-.73,1-1.16,1.44-5.58,5.68-11.13,11.4-16.79,17-2,1.94-3.54,4.32-6.05,5.7.31.4.6.82.94,1.19,2.49,2.75,5.41,5.1,7.61,8.13a98.07,98.07,0,0,1,9.2,9.26,1.71,1.71,0,0,0,1.64,0c3.31-3.39,6.56-6.82,9.92-10.15C1199.06,1230.21,1203.44,1225.3,1208.34,1220.92Z" transform="translate(-7.42 -311.81)"/><path d="M1187.2,1249.52l13.23,13.4c1,1,2,2.06,3,3.13.52.58,1.08.42,1.68.24a20.16,20.16,0,0,1,1.31-1.7c5.2-5.32,10.34-10.71,15.67-15.9,3.1-3,5.87-6.37,9.28-9.07.38-1.12-.41-1.7-1.08-2.34l-15.85-15-1.17.55c-2.37,2.43-4.72,4.87-7.1,7.27q-9.14,9.2-18.29,18.35Z" transform="translate(-7.42 -311.81)"/><path d="M1208,1270.72l15.17,14.54c2.83-2.82,6-6,9.18-9.16,5.81-5.87,11.59-11.78,17.4-17.64.82-.82,1.41-1.35.22-2.45q-6.75-6.18-13.3-12.56c-.83-.82-1.42-1.08-2.3-.3a18.71,18.71,0,0,1-1.37,1.69q-6.86,6.92-13.75,13.81c-3.64,3.64-7.07,7.48-11,10.89Z" transform="translate(-7.42 -311.81)"/><path class="cls-6" d="M1212,1220.91a2,2,0,0,1,1.26,1.89l1.17-.56a3.68,3.68,0,0,0-1.67-2C1212,1219.76,1212,1220.43,1212,1220.91Z" transform="translate(-7.42 -311.81)"/><path class="cls-7" d="M1162.15,1173c.67.88,1.33,1.76,2,2.63l1.13-.13C1164.47,1174.33,1163.79,1173.05,1162.15,1173Z" transform="translate(-7.42 -311.81)"/><path class="cls-8" d="M1184.63,1245.83c-.05-.28-.1-.56-.16-.84a1.71,1.71,0,0,1-1.64,0c.86,1,1.34,2.53,3,2.67,0-.23,0-.46,0-.69l-.58-.56,0,0C1185,1246.22,1184.82,1246,1184.63,1245.83Z" transform="translate(-7.42 -311.81)"/><path class="cls-9" d="M1207,1268.86l-1.26-.63c0,1.49,1.26,1.9,2.28,2.49l.3-1.18-.73-.14Z" transform="translate(-7.42 -311.81)"/><path class="cls-10" d="M1080.69,1080.85a10.93,10.93,0,0,1-3.91,0c-.06,0-.22.15-.2.18a1.83,1.83,0,0,0,.23.38C1078.14,1081.5,1079.54,1082.06,1080.69,1080.85Z" transform="translate(-7.42 -311.81)"/><path class="cls-11" d="M1139.46,1199.76l-2.22-2.06A1.89,1.89,0,0,0,1139.46,1199.76Z" transform="translate(-7.42 -311.81)"/><path class="cls-12" d="M1189.63,1198.53a1.83,1.83,0,0,0,1.3,1.87l.24.09.24-.09C1191.26,1199.36,1190.31,1199.07,1189.63,1198.53Z" transform="translate(-7.42 -311.81)"/><path class="cls-8" d="M1187.87,1248.41l-2-.72a1.7,1.7,0,0,0,1.36,1.83Z" transform="translate(-7.42 -311.81)"/><path class="cls-13" d="M1063.2,1065.86c-.34-.29-.72-.82-1.11-.23-.1.15.38.83,1,.89C1063.1,1066.3,1063.15,1066.08,1063.2,1065.86Z" transform="translate(-7.42 -311.81)"/><path class="cls-14" d="M1090.59,1095.76c-.16-.44-.73-.75-.89-.49-.44.77.34.89.83,1.11A6.2,6.2,0,0,0,1090.59,1095.76Z" transform="translate(-7.42 -311.81)"/><path class="cls-15" d="M1187.68,1197.14c.21.63.76.8,1.31,1a1.56,1.56,0,0,0-1.4-1.41A.54.54,0,0,0,1187.68,1197.14Z" transform="translate(-7.42 -311.81)"/><path class="cls-16" d="M1045.11,1113.84c-.17-.53-.36-1.19-1.06-.73-.3.19,0,.66.44.71Z" transform="translate(-7.42 -311.81)"/><path class="cls-17" d="M1134.77,1146.81a.83.83,0,0,0,.77.69l.2.12.23-.07C1135.83,1146.89,1135.34,1146.78,1134.77,1146.81Z" transform="translate(-7.42 -311.81)"/><path class="cls-18" d="M1134.15,1146.28a.66.66,0,0,0,.65.56c0-.56,0-1-.67-1.23C1134.14,1145.83,1134.14,1146.06,1134.15,1146.28Z" transform="translate(-7.42 -311.81)"/><path class="cls-19" d="M1059.47,1127.05c0-.26-.07-.66-.38-.41s0,.65.28.88A.28.28,0,0,0,1059.47,1127.05Z" transform="translate(-7.42 -311.81)"/><path class="cls-20" d="M1109.9,1169.88c-.05-.26-.13-.53-.46-.44-.11,0-.16.28-.24.43Z" transform="translate(-7.42 -311.81)"/><path class="cls-21" d="M1205.16,1267.64V1267C1204.64,1267.2,1204.68,1267.42,1205.16,1267.64Z" transform="translate(-7.42 -311.81)"/><path class="cls-22" d="M1205.78,1268.25l-.65-.64Z" transform="translate(-7.42 -311.81)"/><path class="cls-23" d="M1232.52,1240.22h.65C1233,1239.72,1232.74,1239.76,1232.52,1240.22Z" transform="translate(-7.42 -311.81)"/><path class="cls-24" d="M1110.49,1171.17c.26-.05.54-.13.44-.48,0-.11-.3-.16-.45-.24C1110.48,1170.69,1110.48,1170.93,1110.49,1171.17Z" transform="translate(-7.42 -311.81)"/><path class="cls-25" d="M1134.15,1146.28c0-.22,0-.45,0-.67l-.62-.06A.72.72,0,0,0,1134.15,1146.28Z" transform="translate(-7.42 -311.81)"/><path class="cls-23" d="M1233.16,1240.21l.64.64Z" transform="translate(-7.42 -311.81)"/><path class="cls-26" d="M1133.55,1144.89c-.26.06-.57.12-.46.48,0,.11.3.16.47.23Z" transform="translate(-7.42 -311.81)"/><path class="cls-27" d="M1233.78,1240.83c0,.2,0,.41,0,.61C1234.32,1241.22,1234.21,1241,1233.78,1240.83Z" transform="translate(-7.42 -311.81)"/><path class="cls-28" d="M1110.53,1170.51a.66.66,0,0,0-.68-.68A.6.6,0,0,0,1110.53,1170.51Z" transform="translate(-7.42 -311.81)"/><path class="cls-29" d="M1062.2,1121.77c.25.88,1,1.3,1.63,1.8,2,1.7,4.19,1.67,5.79,0s1.35-4.36-.33-6.14c-1.37-1.44-1.87-1.51-3.18,0S1063.1,1120,1062.2,1121.77Z" transform="translate(-7.42 -311.81)"/><path class="cls-30" d="M1085.13,1098.37l-5.73,5.56c1.18,1.91,2.56,3,4.6,3.13a3.83,3.83,0,0,0,3.67-1.91,3.43,3.43,0,0,0-.11-3.81A11.34,11.34,0,0,0,1085.13,1098.37Z" transform="translate(-7.42 -311.81)"/><path class="cls-31" d="M1029,1099.63l-.27-.45c-.37.45.13.32.28.42Z" transform="translate(-7.42 -311.81)"/><path class="cls-32" d="M1163.44,1225a1,1,0,0,0-1-1Z" transform="translate(-7.42 -311.81)"/></g></svg>